# xmcd
# 
# Track frame offsets:
#     182
#     25040
#     41490
#     61925
#     84490
#     104845
#     128427
#     147617
#     167850
#     186062
#     207135
# 
# Disc length: 3104
# 
# Revision: 3
# Processed by: cddbd v1.5.2PL0 Copyright (c) Steve Scherf et al.
# Submitted via: BonkEnc v1.0
# 
DISCID=950c1e0b
DTITLE=Counting Crows - August And Everything After
DYEAR=1993
DGENRE=Rock
TTITLE0=Round Here
TTITLE1=Omaha
TTITLE2=Mr. Jones
TTITLE3=Perfect Blue Buildings
TTITLE4=Anna Begins
TTITLE5=Time and Time Again
TTITLE6=Rain King
TTITLE7=Sullivan Street
TTITLE8=Ghost Train
TTITLE9=Raining in Baltimore
TTITLE10=A Murder of One
EXTD=YEAR: 1993
EXTT0=
EXTT1=
EXTT2=
EXTT3=
EXTT4=
EXTT5=
EXTT6=
EXTT7=
EXTT8=
EXTT9=
EXTT10=
PLAYORDER=
